<svg width="1000" height="1250" xmlns="http://www.w3.org/2000/svg"><defs><linearGradient x1="50%" y1="33.446%" x2="75.499%" y2="81.743%" id="a"><stop stop-color="#0D7FFF" offset="0%"/><stop stop-color="#0026E0" offset="100%"/></linearGradient><linearGradient x1="50%" y1="26.072%" y2="100%" id="b"><stop stop-color="#FFC72D" offset="0%"/><stop stop-color="#D46C00" offset="100%"/></linearGradient><linearGradient x1="0%" y1="50%" y2="50%" id="c"><stop stop-color="#4CE600" offset="0%"/><stop stop-color="#009720" offset="100%"/></linearGradient><linearGradient x1="2.678%" y1="50%" y2="52.069%" id="d"><stop stop-color="#FF2290" offset="0%"/><stop stop-color="#C50033" offset="100%"/></linearGradient></defs><g fill="none" fill-rule="evenodd"><path d="M596.314 450l164.545-95h128.564v95H596.314zm293.109-169.226V350H769.519l119.904-69.226zM423.109 550l164.545-95h301.769v95H423.109zM249.904 650l164.545-95h474.974v95h-639.52zM115 727.887L241.244 655h648.179v70l-43.301 25h-692.82L115 727.887zM837.461 755l-164.544 95h-346.41l-164.545-95h675.5zM664.256 855l-164.545 95-164.544-95h329.09z" fill="url(#a)"/><path d="M115.289 272.113L495 52.887V491.34L115.289 272.113z" fill="url(#b)"/><path d="M409.928 217.033L789.639-2.193V436.26L409.928 217.033z" fill="url(#c)" transform="rotate(60 599.784 217.033)"/><path d="M15.928 445.033l379.711-219.226V664.26L15.928 445.033z" fill="url(#d)" transform="rotate(60 205.784 445.033)"/><text font-family="KozGoPro-ExtraLight, Kozuka Gothic Pro" font-size="160" font-weight="300" letter-spacing="5.333" fill="#000"><tspan x="259.46" y="1172">hiplog</tspan></text></g></svg>