<svg width="1000" height="1200" xmlns="http://www.w3.org/2000/svg" xmlns:xlink="http://www.w3.org/1999/xlink"><defs><path d="M210.904 46.244C193.256 17.919 157.047 0 157.047 0s-2.688 21.23-13.719 33.237c-11.035 12.006-18.67 28.02-16.64 47.046 2.024 19.031-4.815 45.592-7.85 54.204-3.042 8.619-23.749 69.105-23.749 69.105s12.201 8.232 18.65 26.429c6.447 18.204 9.094 28.597 9.094 28.597s-11.11-24.812-21.162-34.57c-10.059-9.762-13.473-10.828-13.473-10.828s19.514 25.224 27.44 59.336c3.851 16.577 5.136 34.43 5.441 48.414-1.646-14.812-5.029-33.24-11.99-48.982-14.347-32.44-22.567-39.427-22.567-39.427s19.883 34.907 22.385 71.741c2 29.463 3.01 56.243 3.333 65.79-4.26-9.846-12.325-29.89-14.415-44.974-2.873-20.759-18.309-62.368-18.309-62.368l-1.967 20.723L72.461 276s-3.43 27.624-6.615 36.932l-3.182 9.308s11.97 23.601 13.467 36.577c1.378 11.985 17.318 69.933 19.746 78.717l-.103.331c-2.678-5.166-17.755-34.883-21.905-56.943-4.564-24.234-7.879-42.928-7.879-42.928s-1.887 31.783-.1 43.379c1.28 8.311 14.06 40.25 21.196 57.673-5.185-6.029-11.71-14.9-16.958-26.182C59.714 390.48 55.82 348.8 55.82 348.8s-9.832 52.11-14.156 61.06c-4.322 8.953-9.852 29.303-9.852 29.303s3.393 29.754 20.971 69.825c10.458 23.842 15.74 35.648 18.302 41.3-6.132-7.203-17.395-23.123-28.065-52.443-15.709-43.167-16.117-46.966-16.117-46.966s4.402 53.614 9.564 72.143c5.166 18.542 9.701 22.902 9.701 22.902s-14.604-11.181-19.61-33.35c-5-22.158-4.786-34.602-4.786-34.602s-6.324 35.546 2.674 56.02c8.996 20.466 22.58 36.478 26.785 48.09 2.114 5.83 4.803 17.588 6.958 27.854-2.73-7.664-6.46-16.154-10.839-20.964-9.344-10.275-30.105-41.041-31.969-63.697 0 0-8.596 34.842-9.12 51.6-.52 16.758 2.774 38.392 2.774 38.392s15.35 30.546 25.242 43.933c9.898 13.397 15.387 24.673 15.387 24.673S35.48 673.555 25.311 658.61C15.14 643.664 12.9 637.08 12.9 637.08s8.234 29.795 24.086 46.514c6.416 6.765 10.235 10.792 12.511 13.19-5.59-3.562-14.074-9.29-20.046-14.804-9.633-8.893-25.295-35.125-27.03-55.529 0 0-6.34 38.487 1.505 61.54 7.85 23.046 25.65 47.736 25.65 47.736s-17.629-5.501-28.283-35.311c0 0 2.6 19.2 11.045 36.555 8.443 17.353 23.068 25.594 23.068 25.594s-8.986 2.352-16.36-2.899c-7.376-5.245-13.046-9.96-13.046-9.96s10.752 12.186 16 16.033c4.524 3.315 10.63 7.654 16.905 5.065-8.166 55.783-15.887 108.839-20.27 137.613-1.794 11.758-3.396 21.196-4.856 29.074-5.164 27.853-8.578 36.306-12.47 59.914-.093.538-.18 1.097-.27 1.657 0 0 2.187.433 5.56-.259 3.043-.628 7.05-2.176 11.273-5.784 8.502-7.27 17.893-22.882 22.121-56.19a259.09 259.09 0 0 0 1.346-13.482c2.7-36.143 9-89.266 15.89-141.954 3.393 3.794 11.19 13.425 13.678 24.2-.887-7.584-3.248-18.057-9.39-27.023 0 0 13.871-.579 22.143 13.777l8.273 14.357s-1.408-20.057-15.594-29.397c0 0 8.553-2.236 15.55 2.89 7.001 5.132 13.433 9.106 13.433 9.106s-7.688-17.116-28.918-23.74c-7.804-2.436-13.042-3.541-16.556-3.97l.178-1.329c5.234-1.052 12.42-1.826 18.308.012 10.611 3.312 34.547.977 40.336-14.88 0 0-18.678 11.83-30.809 8.047-5.787-1.809-13.128-4.099-19.647-4.004 5.105-2.121 11.256-3.698 17.987-3.39 18.412.844 29.283-8.516 34.658-18.611 0 0-15.428 7.93-29.287 8.51-8.687.366-20.952 1.153-29.165 6.67l.39-2.846c5.511-6.114 13.445-13.537 20.676-15.176 12.732-2.89 24.887-3.025 34.42-9.853 0 0-15.97 2.862-26.973 1.39 0 0 14.453-3.34 24.938-10.852 10.482-7.523 14.756-23.852 14.756-23.852l5.828-23.68 3.127-14.729s-11.318 19.037-21.219 23.795c-9.896 4.753-23.908-1.59-35.719 4.54-4.142 2.148-8.052 5.091-11.388 8.01l.704-4.91c7.184-6.8 18.342-16.396 29.207-21.84 18.086-9.072 33.537-20.927 41.6-36.07 8.06-15.144 13.105-35.141 13.105-35.141s-16.2 11.607-35.957 13.29c0 0 22.814-4.643 37.156-22.733 0 0-21.734 14.795-33.305 12.166-9.724-2.211-28.058 1.208-39.204 5.868l.217-1.36c8.19-5.815 23.237-16.02 31.474-18.626 11.7-3.707 32.385-9.758 42.686-18.31 10.3-8.56 10.81-22.387 10.81-22.387s-12.772 17.355-36.417 17.333c-17.712-.017-35.63 7.338-43.499 11.025.032-.194.065-.392.1-.588 8.078-4.922 26.038-15.274 39.032-18.424 17.254-4.179 34.393-13.54 40.424-21.962 6.031-8.42 11.47-14.077 11.47-14.077l-7.538-1.614s7.105-22.07 12.467-38.788c5.37-16.72 3.594-31.252 6.23-43.672 2.636-12.425 2.972-22.618 2.972-22.618s-17.662 26.123-23.998 38.86c-6.338 12.74-38.639 33.555-55.328 37.91-4.192 1.093-7.777 1.493-10.797 1.48l.278-1.44c8.63-1.2 22.956-6.562 40.286-26.06 28.668-32.26 53.09-70.254 57.102-74.887 4.014-4.634 6.03-8.418 6.03-8.418s-1.04-17.985 1.577-27.47c2.617-9.484 4.668-19.144 4.668-19.144s-25.783 27.268-50.78 39.33c-17.547 8.472-29.706 9.914-35.398 10.023l.27-1.06c11.831-2.964 47.334-13.517 65.34-37.054 21.806-28.51 23.38-30.228 24.583-41.625 0 0-23.436 39.037-63.109 54.61 0 0 46.146-26.062 63.34-69.996l3.105-20.36s-18.824 28.706-39.715 47.204c-16.096 14.24-33.569 19.75-40.752 21.531.118-.38.235-.762.354-1.14 12.658-6.73 54-31.885 68.787-79.964 0 0-19.107 30.089-37.729 49.29-18.627 19.202-25.32 19.328-25.32 19.328s29.562-39.342 40.3-49.971c10.741-10.621 33.962-37.219 35.247-63.303 1.29-26.09-1.078-60.675 1.264-71.719 2.335-11.038 3.967-47.317-13.677-75.637z" id="a"/><linearGradient x1="0%" y1="0%" x2="98.884%" y2="0%" id="b"><stop stop-color="#00C3FF" offset="0%"/><stop stop-color="#00128A" offset="100%"/></linearGradient><linearGradient x1="3.52%" y1="0%" x2="96.432%" y2="0%" id="d"><stop stop-color="#FE1E86" offset="0%"/><stop stop-color="#B6002E" offset="100%"/></linearGradient><linearGradient x1="1.145%" y1="0%" x2="98.884%" y2="0%" id="e"><stop stop-color="#29FF00" offset="0%"/><stop stop-color="#309F00" offset="100%"/></linearGradient><linearGradient x1="5.339%" y1="0%" x2="96.846%" y2="0%" id="f"><stop stop-color="#FFDA00" offset="0%"/><stop stop-color="#E69600" offset="100%"/></linearGradient></defs><g fill="none" fill-rule="evenodd"><text font-family="AdventPro-Light, Advent Pro" font-size="160" font-weight="300" letter-spacing="5.333" fill="#000"><tspan x="298.16" y="1154">hiplog</tspan></text><g transform="translate(385)"><mask id="c" fill="#fff"><use xlink:href="#a"/></mask><use fill="#000" xlink:href="#a"/><path fill="url(#b)" mask="url(#c)" d="M-5 460h200v540H-5z"/><path fill="url(#d)" mask="url(#c)" d="M15 300h200v180H15z"/><path fill="url(#e)" mask="url(#c)" d="M55 140h180v180H55z"/><path fill="url(#f)" mask="url(#c)" d="M95-20h140v180H95z"/></g></g></svg>